<mxfile host="app.diagrams.net" modified="2024-02-20T20:24:11.967Z" agent="Mozilla/5.0 (X11; Linux x86_64) AppleWebKit/537.36 (KHTML, like Gecko) Chrome/121.0.0.0 Safari/537.36" etag="tuk1dnIXiPCUYoc3cpYP" version="23.1.5" type="github">
  <diagram id="C5RBs43oDa-KdzZeNtuy" name="Page-1">
    <mxGraphModel dx="1440" dy="4577" grid="1" gridSize="10" guides="1" tooltips="1" connect="1" arrows="1" fold="1" page="1" pageScale="1" pageWidth="827" pageHeight="1169" math="0" shadow="0">
      <root>
        <mxCell id="WIyWlLk6GJQsqaUBKTNV-0" />
        <mxCell id="WIyWlLk6GJQsqaUBKTNV-1" parent="WIyWlLk6GJQsqaUBKTNV-0" />
        <mxCell id="CHBhgS3oAQKA-8naU6Je-36" value="&lt;p style=&quot;margin:0px;margin-top:4px;text-align:center;&quot;&gt;&lt;b&gt;refresh-token&lt;/b&gt;&lt;/p&gt;&lt;hr size=&quot;1&quot;&gt;&lt;p style=&quot;margin:0 0 0 4px;line-height:1.6;&quot;&gt; created: timestamp&lt;br&gt; updated: timestamp&lt;br&gt; name: text&lt;br&gt;email: text&lt;br&gt;password: text&lt;br&gt;bio: text&lt;br&gt;image: text&lt;br&gt;&lt;/p&gt;&lt;hr size=&quot;1&quot;&gt;&lt;p style=&quot;margin:0 0 0 4px;line-height:1.6;&quot;&gt; id: uuid (PK)&lt;/p&gt;&lt;p style=&quot;margin:0 0 0 4px;line-height:1.6;&quot;&gt;user_id: uuid (FK)&lt;/p&gt;" style="verticalAlign=top;align=left;overflow=fill;fontSize=14;fontFamily=Helvetica;html=1;rounded=0;shadow=0;comic=0;labelBackgroundColor=none;strokeWidth=1;" vertex="1" parent="WIyWlLk6GJQsqaUBKTNV-1">
          <mxGeometry x="1208" y="-1080" width="258" height="270" as="geometry" />
        </mxCell>
        <mxCell id="CHBhgS3oAQKA-8naU6Je-0" value="&lt;p style=&quot;margin:0px;margin-top:4px;text-align:center;&quot;&gt;&lt;b&gt;refresh-token&lt;/b&gt;&lt;/p&gt;&lt;hr size=&quot;1&quot;&gt;&lt;p style=&quot;margin:0 0 0 4px;line-height:1.6;&quot;&gt; created: timestamp&lt;br&gt; updated: timestamp&lt;br&gt; name: text&lt;br&gt;email: text&lt;br&gt;password: text&lt;br&gt;bio: text&lt;br&gt;image: text&lt;br&gt;&lt;/p&gt;&lt;hr size=&quot;1&quot;&gt;&lt;p style=&quot;margin:0 0 0 4px;line-height:1.6;&quot;&gt; id: uuid (PK)&lt;/p&gt;&lt;p style=&quot;margin:0 0 0 4px;line-height:1.6;&quot;&gt;user_id: uuid (FK)&lt;/p&gt;" style="verticalAlign=top;align=left;overflow=fill;fontSize=14;fontFamily=Helvetica;html=1;rounded=0;shadow=0;comic=0;labelBackgroundColor=none;strokeWidth=1;" vertex="1" parent="WIyWlLk6GJQsqaUBKTNV-1">
          <mxGeometry x="1258" y="-1090" width="258" height="270" as="geometry" />
        </mxCell>
        <mxCell id="CHBhgS3oAQKA-8naU6Je-37" style="edgeStyle=orthogonalEdgeStyle;rounded=1;orthogonalLoop=1;jettySize=auto;html=1;exitX=0.5;exitY=1;exitDx=0;exitDy=0;startArrow=ERone;startFill=0;endSize=12;startSize=12;endArrow=ERzeroToMany;endFill=0;curved=0;entryX=0.516;entryY=-0.002;entryDx=0;entryDy=0;entryPerimeter=0;" edge="1" parent="WIyWlLk6GJQsqaUBKTNV-1" source="CHBhgS3oAQKA-8naU6Je-41" target="CHBhgS3oAQKA-8naU6Je-42">
          <mxGeometry relative="1" as="geometry">
            <mxPoint x="230" y="-650" as="targetPoint" />
            <Array as="points">
              <mxPoint x="799" y="-740" />
              <mxPoint x="263" y="-740" />
              <mxPoint x="263" y="-650" />
            </Array>
          </mxGeometry>
        </mxCell>
        <mxCell id="CHBhgS3oAQKA-8naU6Je-1" style="edgeStyle=orthogonalEdgeStyle;rounded=1;orthogonalLoop=1;jettySize=auto;html=1;exitX=0.5;exitY=1;exitDx=0;exitDy=0;startArrow=ERone;startFill=0;endSize=12;startSize=12;endArrow=ERzeroToMany;endFill=0;curved=0;" edge="1" parent="WIyWlLk6GJQsqaUBKTNV-1" source="CHBhgS3oAQKA-8naU6Je-5" target="CHBhgS3oAQKA-8naU6Je-6">
          <mxGeometry relative="1" as="geometry">
            <Array as="points">
              <mxPoint x="849" y="-750" />
              <mxPoint x="340" y="-750" />
            </Array>
          </mxGeometry>
        </mxCell>
        <mxCell id="CHBhgS3oAQKA-8naU6Je-38" style="edgeStyle=orthogonalEdgeStyle;rounded=1;orthogonalLoop=1;jettySize=auto;html=1;entryX=0.5;entryY=0;entryDx=0;entryDy=0;startArrow=ERone;startFill=0;endSize=12;startSize=12;endArrow=ERzeroToMany;endFill=0;curved=0;" edge="1" parent="WIyWlLk6GJQsqaUBKTNV-1" source="CHBhgS3oAQKA-8naU6Je-41" target="CHBhgS3oAQKA-8naU6Je-46">
          <mxGeometry relative="1" as="geometry">
            <Array as="points">
              <mxPoint x="799" y="-670" />
              <mxPoint x="799" y="-670" />
            </Array>
          </mxGeometry>
        </mxCell>
        <mxCell id="CHBhgS3oAQKA-8naU6Je-2" style="edgeStyle=orthogonalEdgeStyle;rounded=1;orthogonalLoop=1;jettySize=auto;html=1;entryX=0.5;entryY=0;entryDx=0;entryDy=0;startArrow=ERone;startFill=0;endSize=12;startSize=12;endArrow=ERzeroToMany;endFill=0;curved=0;" edge="1" parent="WIyWlLk6GJQsqaUBKTNV-1" source="CHBhgS3oAQKA-8naU6Je-5" target="CHBhgS3oAQKA-8naU6Je-10">
          <mxGeometry relative="1" as="geometry">
            <Array as="points">
              <mxPoint x="849" y="-680" />
              <mxPoint x="849" y="-680" />
            </Array>
          </mxGeometry>
        </mxCell>
        <mxCell id="CHBhgS3oAQKA-8naU6Je-39" style="edgeStyle=orthogonalEdgeStyle;rounded=0;orthogonalLoop=1;jettySize=auto;html=1;entryX=-0.007;entryY=0.445;entryDx=0;entryDy=0;endArrow=ERzeroToMany;endFill=0;startArrow=ERone;startFill=0;endSize=12;startSize=12;entryPerimeter=0;" edge="1" parent="WIyWlLk6GJQsqaUBKTNV-1" source="CHBhgS3oAQKA-8naU6Je-41" target="CHBhgS3oAQKA-8naU6Je-36">
          <mxGeometry relative="1" as="geometry" />
        </mxCell>
        <mxCell id="CHBhgS3oAQKA-8naU6Je-3" style="edgeStyle=orthogonalEdgeStyle;rounded=0;orthogonalLoop=1;jettySize=auto;html=1;entryX=-0.007;entryY=0.445;entryDx=0;entryDy=0;endArrow=ERzeroToMany;endFill=0;startArrow=ERone;startFill=0;endSize=12;startSize=12;entryPerimeter=0;" edge="1" parent="WIyWlLk6GJQsqaUBKTNV-1" source="CHBhgS3oAQKA-8naU6Je-5" target="CHBhgS3oAQKA-8naU6Je-0">
          <mxGeometry relative="1" as="geometry" />
        </mxCell>
        <mxCell id="CHBhgS3oAQKA-8naU6Je-40" style="edgeStyle=orthogonalEdgeStyle;rounded=1;orthogonalLoop=1;jettySize=auto;html=1;entryX=0.5;entryY=0;entryDx=0;entryDy=0;exitX=0.5;exitY=1;exitDx=0;exitDy=0;curved=0;endSize=12;startSize=12;startArrow=ERone;startFill=0;endArrow=ERzeroToMany;endFill=0;" edge="1" parent="WIyWlLk6GJQsqaUBKTNV-1" source="CHBhgS3oAQKA-8naU6Je-41" target="CHBhgS3oAQKA-8naU6Je-47">
          <mxGeometry relative="1" as="geometry">
            <Array as="points">
              <mxPoint x="799" y="-720" />
              <mxPoint x="1337" y="-720" />
            </Array>
          </mxGeometry>
        </mxCell>
        <mxCell id="CHBhgS3oAQKA-8naU6Je-4" style="edgeStyle=orthogonalEdgeStyle;rounded=1;orthogonalLoop=1;jettySize=auto;html=1;entryX=0.5;entryY=0;entryDx=0;entryDy=0;exitX=0.5;exitY=1;exitDx=0;exitDy=0;curved=0;endSize=12;startSize=12;startArrow=ERone;startFill=0;endArrow=ERzeroToMany;endFill=0;" edge="1" parent="WIyWlLk6GJQsqaUBKTNV-1" source="CHBhgS3oAQKA-8naU6Je-5" target="CHBhgS3oAQKA-8naU6Je-11">
          <mxGeometry relative="1" as="geometry">
            <Array as="points">
              <mxPoint x="849" y="-700" />
              <mxPoint x="1387" y="-700" />
            </Array>
          </mxGeometry>
        </mxCell>
        <mxCell id="CHBhgS3oAQKA-8naU6Je-41" value="&lt;p style=&quot;margin:0px;margin-top:4px;text-align:center;&quot;&gt;&lt;b&gt;user&lt;/b&gt;&lt;/p&gt;&lt;hr size=&quot;1&quot;&gt;&lt;p style=&quot;margin:0 0 0 4px;line-height:1.6;&quot;&gt; created: timestamp&lt;br&gt; updated: timestamp&lt;/p&gt;&lt;p style=&quot;margin:0 0 0 4px;line-height:1.6;&quot;&gt;name: text&lt;br style=&quot;border-color: var(--border-color);&quot;&gt;email: text&lt;br style=&quot;border-color: var(--border-color);&quot;&gt;password: text&lt;br style=&quot;border-color: var(--border-color);&quot;&gt;bio: text&lt;br style=&quot;border-color: var(--border-color);&quot;&gt;image: text&lt;br&gt;&lt;/p&gt;&lt;hr size=&quot;1&quot;&gt;&lt;p style=&quot;margin:0 0 0 4px;line-height:1.6;&quot;&gt; id: uuid (PK)&lt;/p&gt;" style="verticalAlign=top;align=left;overflow=fill;fontSize=14;fontFamily=Helvetica;html=1;rounded=0;shadow=0;comic=0;labelBackgroundColor=none;strokeWidth=1;" vertex="1" parent="WIyWlLk6GJQsqaUBKTNV-1">
          <mxGeometry x="670" y="-1080" width="258" height="240" as="geometry" />
        </mxCell>
        <mxCell id="CHBhgS3oAQKA-8naU6Je-5" value="&lt;p style=&quot;margin:0px;margin-top:4px;text-align:center;&quot;&gt;&lt;b&gt;user&lt;/b&gt;&lt;/p&gt;&lt;hr size=&quot;1&quot;&gt;&lt;p style=&quot;margin:0 0 0 4px;line-height:1.6;&quot;&gt; created: timestamp&lt;br&gt; updated: timestamp&lt;/p&gt;&lt;p style=&quot;margin:0 0 0 4px;line-height:1.6;&quot;&gt;name: text&lt;br style=&quot;border-color: var(--border-color);&quot;&gt;email: text&lt;br style=&quot;border-color: var(--border-color);&quot;&gt;password: text&lt;br style=&quot;border-color: var(--border-color);&quot;&gt;bio: text&lt;br style=&quot;border-color: var(--border-color);&quot;&gt;image: text&lt;br&gt;&lt;/p&gt;&lt;hr size=&quot;1&quot;&gt;&lt;p style=&quot;margin:0 0 0 4px;line-height:1.6;&quot;&gt; id: uuid (PK)&lt;/p&gt;" style="verticalAlign=top;align=left;overflow=fill;fontSize=14;fontFamily=Helvetica;html=1;rounded=0;shadow=0;comic=0;labelBackgroundColor=none;strokeWidth=1;" vertex="1" parent="WIyWlLk6GJQsqaUBKTNV-1">
          <mxGeometry x="720" y="-1090" width="258" height="240" as="geometry" />
        </mxCell>
        <mxCell id="CHBhgS3oAQKA-8naU6Je-42" value="&lt;p style=&quot;margin:0px;margin-top:4px;text-align:center;&quot;&gt;&lt;b&gt;comment&lt;/b&gt;&lt;/p&gt;&lt;hr size=&quot;1&quot;&gt;&lt;p style=&quot;margin:0 0 0 4px;line-height:1.6;&quot;&gt; created: timestamp&lt;br&gt; updated: timestamp&lt;br&gt;body: text&lt;br&gt;&lt;/p&gt;&lt;hr size=&quot;1&quot;&gt;&lt;p style=&quot;border-color: var(--border-color); margin: 0px 0px 0px 4px; line-height: 1.6;&quot;&gt;id: uuid (PK)&lt;/p&gt;&lt;p style=&quot;border-color: var(--border-color); margin: 0px 0px 0px 4px; line-height: 1.6;&quot;&gt;user_id: uuid (FK)&lt;/p&gt;&lt;p style=&quot;border-color: var(--border-color); margin: 0px 0px 0px 4px; line-height: 1.6;&quot;&gt;article_id: uuid (FK)&lt;/p&gt;" style="verticalAlign=top;align=left;overflow=fill;fontSize=14;fontFamily=Helvetica;html=1;rounded=0;shadow=0;comic=0;labelBackgroundColor=none;strokeWidth=1;" vertex="1" parent="WIyWlLk6GJQsqaUBKTNV-1">
          <mxGeometry x="130" y="-610" width="258" height="200" as="geometry" />
        </mxCell>
        <mxCell id="CHBhgS3oAQKA-8naU6Je-6" value="&lt;p style=&quot;margin:0px;margin-top:4px;text-align:center;&quot;&gt;&lt;b&gt;comment&lt;/b&gt;&lt;/p&gt;&lt;hr size=&quot;1&quot;&gt;&lt;p style=&quot;margin:0 0 0 4px;line-height:1.6;&quot;&gt; created: timestamp&lt;br&gt; updated: timestamp&lt;br&gt;body: text&lt;br&gt;&lt;/p&gt;&lt;hr size=&quot;1&quot;&gt;&lt;p style=&quot;border-color: var(--border-color); margin: 0px 0px 0px 4px; line-height: 1.6;&quot;&gt;id: uuid (PK)&lt;/p&gt;&lt;p style=&quot;border-color: var(--border-color); margin: 0px 0px 0px 4px; line-height: 1.6;&quot;&gt;user_id: uuid (FK)&lt;/p&gt;&lt;p style=&quot;border-color: var(--border-color); margin: 0px 0px 0px 4px; line-height: 1.6;&quot;&gt;article_id: uuid (FK)&lt;/p&gt;" style="verticalAlign=top;align=left;overflow=fill;fontSize=14;fontFamily=Helvetica;html=1;rounded=0;shadow=0;comic=0;labelBackgroundColor=none;strokeWidth=1;" vertex="1" parent="WIyWlLk6GJQsqaUBKTNV-1">
          <mxGeometry x="180" y="-620" width="258" height="200" as="geometry" />
        </mxCell>
        <mxCell id="CHBhgS3oAQKA-8naU6Je-43" style="edgeStyle=orthogonalEdgeStyle;rounded=0;orthogonalLoop=1;jettySize=auto;html=1;entryX=1;entryY=0.5;entryDx=0;entryDy=0;endSize=12;startSize=12;endArrow=ERzeroToMany;endFill=0;startArrow=ERone;startFill=0;exitX=-0.004;exitY=0.457;exitDx=0;exitDy=0;exitPerimeter=0;" edge="1" parent="WIyWlLk6GJQsqaUBKTNV-1" source="CHBhgS3oAQKA-8naU6Je-46" target="CHBhgS3oAQKA-8naU6Je-42">
          <mxGeometry relative="1" as="geometry">
            <mxPoint x="560" y="-510" as="sourcePoint" />
          </mxGeometry>
        </mxCell>
        <mxCell id="CHBhgS3oAQKA-8naU6Je-7" style="edgeStyle=orthogonalEdgeStyle;rounded=0;orthogonalLoop=1;jettySize=auto;html=1;entryX=1;entryY=0.5;entryDx=0;entryDy=0;endSize=12;startSize=12;endArrow=ERzeroToMany;endFill=0;startArrow=ERone;startFill=0;exitX=-0.003;exitY=0.45;exitDx=0;exitDy=0;exitPerimeter=0;" edge="1" parent="WIyWlLk6GJQsqaUBKTNV-1" source="CHBhgS3oAQKA-8naU6Je-10" target="CHBhgS3oAQKA-8naU6Je-6">
          <mxGeometry relative="1" as="geometry">
            <mxPoint x="610" y="-520" as="sourcePoint" />
          </mxGeometry>
        </mxCell>
        <mxCell id="CHBhgS3oAQKA-8naU6Je-44" style="edgeStyle=orthogonalEdgeStyle;rounded=1;orthogonalLoop=1;jettySize=auto;html=1;entryX=-0.002;entryY=0.587;entryDx=0;entryDy=0;curved=0;endArrow=ERzeroToMany;endFill=0;endSize=12;startSize=12;startArrow=ERone;startFill=0;exitX=1.001;exitY=0.453;exitDx=0;exitDy=0;exitPerimeter=0;entryPerimeter=0;" edge="1" parent="WIyWlLk6GJQsqaUBKTNV-1" source="CHBhgS3oAQKA-8naU6Je-46" target="CHBhgS3oAQKA-8naU6Je-47">
          <mxGeometry relative="1" as="geometry">
            <mxPoint x="820" y="-510" as="sourcePoint" />
            <mxPoint x="950" y="-510.48999999999955" as="targetPoint" />
          </mxGeometry>
        </mxCell>
        <mxCell id="CHBhgS3oAQKA-8naU6Je-8" style="edgeStyle=orthogonalEdgeStyle;rounded=1;orthogonalLoop=1;jettySize=auto;html=1;entryX=-0.002;entryY=0.587;entryDx=0;entryDy=0;curved=0;endArrow=ERzeroToMany;endFill=0;endSize=12;startSize=12;startArrow=ERone;startFill=0;exitX=1.001;exitY=0.453;exitDx=0;exitDy=0;exitPerimeter=0;entryPerimeter=0;" edge="1" parent="WIyWlLk6GJQsqaUBKTNV-1" source="CHBhgS3oAQKA-8naU6Je-10" target="CHBhgS3oAQKA-8naU6Je-11">
          <mxGeometry relative="1" as="geometry">
            <mxPoint x="870" y="-520" as="sourcePoint" />
            <mxPoint x="1000" y="-520.4899999999996" as="targetPoint" />
          </mxGeometry>
        </mxCell>
        <mxCell id="CHBhgS3oAQKA-8naU6Je-45" style="edgeStyle=orthogonalEdgeStyle;rounded=1;orthogonalLoop=1;jettySize=auto;html=1;exitX=0.5;exitY=1;exitDx=0;exitDy=0;entryX=0.5;entryY=0;entryDx=0;entryDy=0;curved=0;endSize=12;startSize=12;endArrow=ERzeroToMany;endFill=0;startArrow=ERone;startFill=0;" edge="1" parent="WIyWlLk6GJQsqaUBKTNV-1" source="CHBhgS3oAQKA-8naU6Je-46" target="CHBhgS3oAQKA-8naU6Je-51">
          <mxGeometry relative="1" as="geometry" />
        </mxCell>
        <mxCell id="CHBhgS3oAQKA-8naU6Je-9" style="edgeStyle=orthogonalEdgeStyle;rounded=1;orthogonalLoop=1;jettySize=auto;html=1;exitX=0.5;exitY=1;exitDx=0;exitDy=0;entryX=0.5;entryY=0;entryDx=0;entryDy=0;curved=0;endSize=12;startSize=12;endArrow=ERzeroToMany;endFill=0;startArrow=ERone;startFill=0;" edge="1" parent="WIyWlLk6GJQsqaUBKTNV-1" source="CHBhgS3oAQKA-8naU6Je-10" target="CHBhgS3oAQKA-8naU6Je-15">
          <mxGeometry relative="1" as="geometry" />
        </mxCell>
        <mxCell id="CHBhgS3oAQKA-8naU6Je-46" value="&lt;p style=&quot;margin:0px;margin-top:4px;text-align:center;&quot;&gt;&lt;b&gt;article&lt;/b&gt;&lt;/p&gt;&lt;hr size=&quot;1&quot;&gt;&lt;p style=&quot;margin:0 0 0 4px;line-height:1.6;&quot;&gt; created: timestamp&lt;br&gt; updated: timestamp&lt;br&gt;&lt;/p&gt;&lt;p style=&quot;margin:0 0 0 4px;line-height:1.6;&quot;&gt;title: text&lt;br&gt;&lt;/p&gt;&lt;p style=&quot;margin:0 0 0 4px;line-height:1.6;&quot;&gt;description: text&lt;br&gt;&lt;/p&gt;&lt;p style=&quot;margin:0 0 0 4px;line-height:1.6;&quot;&gt;body: text&lt;/p&gt;&lt;hr size=&quot;1&quot;&gt;&lt;p style=&quot;border-color: var(--border-color); margin: 0px 0px 0px 4px; line-height: 1.6;&quot;&gt;id: uuid (PK)&lt;/p&gt;&lt;p style=&quot;border-color: var(--border-color); margin: 0px 0px 0px 4px; line-height: 1.6;&quot;&gt;user_id: uuid (FK)&lt;/p&gt;" style="verticalAlign=top;align=left;overflow=fill;fontSize=14;fontFamily=Helvetica;html=1;rounded=0;shadow=0;comic=0;labelBackgroundColor=none;strokeWidth=1;" vertex="1" parent="WIyWlLk6GJQsqaUBKTNV-1">
          <mxGeometry x="670" y="-610" width="258" height="220" as="geometry" />
        </mxCell>
        <mxCell id="CHBhgS3oAQKA-8naU6Je-10" value="&lt;p style=&quot;margin:0px;margin-top:4px;text-align:center;&quot;&gt;&lt;b&gt;article&lt;/b&gt;&lt;/p&gt;&lt;hr size=&quot;1&quot;&gt;&lt;p style=&quot;margin:0 0 0 4px;line-height:1.6;&quot;&gt; created: timestamp&lt;br&gt; updated: timestamp&lt;br&gt;&lt;/p&gt;&lt;p style=&quot;margin:0 0 0 4px;line-height:1.6;&quot;&gt;title: text&lt;br&gt;&lt;/p&gt;&lt;p style=&quot;margin:0 0 0 4px;line-height:1.6;&quot;&gt;description: text&lt;br&gt;&lt;/p&gt;&lt;p style=&quot;margin:0 0 0 4px;line-height:1.6;&quot;&gt;body: text&lt;/p&gt;&lt;hr size=&quot;1&quot;&gt;&lt;p style=&quot;border-color: var(--border-color); margin: 0px 0px 0px 4px; line-height: 1.6;&quot;&gt;id: uuid (PK)&lt;/p&gt;&lt;p style=&quot;border-color: var(--border-color); margin: 0px 0px 0px 4px; line-height: 1.6;&quot;&gt;user_id: uuid (FK)&lt;/p&gt;" style="verticalAlign=top;align=left;overflow=fill;fontSize=14;fontFamily=Helvetica;html=1;rounded=0;shadow=0;comic=0;labelBackgroundColor=none;strokeWidth=1;" vertex="1" parent="WIyWlLk6GJQsqaUBKTNV-1">
          <mxGeometry x="720" y="-620" width="258" height="220" as="geometry" />
        </mxCell>
        <mxCell id="CHBhgS3oAQKA-8naU6Je-47" value="&lt;p style=&quot;margin:0px;margin-top:4px;text-align:center;&quot;&gt;&lt;b&gt;like&lt;/b&gt;&lt;/p&gt;&lt;hr size=&quot;1&quot;&gt;&lt;p style=&quot;margin:0 0 0 4px;line-height:1.6;&quot;&gt; created: timestamp&lt;/p&gt;&lt;p style=&quot;margin:0 0 0 4px;line-height:1.6;&quot;&gt;updated: timestamp&lt;br&gt;&lt;/p&gt;&lt;hr size=&quot;1&quot;&gt;&lt;p style=&quot;border-color: var(--border-color); margin: 0px 0px 0px 4px; line-height: 1.6;&quot;&gt;id: uuid (PK)&lt;/p&gt;&lt;p style=&quot;border-color: var(--border-color); margin: 0px 0px 0px 4px; line-height: 1.6;&quot;&gt;user_id: uuid (FK)&lt;/p&gt;&lt;p style=&quot;border-color: var(--border-color); margin: 0px 0px 0px 4px; line-height: 1.6;&quot;&gt;article_id: uuid (FK)&lt;br&gt;&lt;/p&gt;" style="verticalAlign=top;align=left;overflow=fill;fontSize=14;fontFamily=Helvetica;html=1;rounded=0;shadow=0;comic=0;labelBackgroundColor=none;strokeWidth=1;" vertex="1" parent="WIyWlLk6GJQsqaUBKTNV-1">
          <mxGeometry x="1208" y="-610" width="258" height="170" as="geometry" />
        </mxCell>
        <mxCell id="CHBhgS3oAQKA-8naU6Je-11" value="&lt;p style=&quot;margin:0px;margin-top:4px;text-align:center;&quot;&gt;&lt;b&gt;like&lt;/b&gt;&lt;/p&gt;&lt;hr size=&quot;1&quot;&gt;&lt;p style=&quot;margin:0 0 0 4px;line-height:1.6;&quot;&gt; created: timestamp&lt;/p&gt;&lt;p style=&quot;margin:0 0 0 4px;line-height:1.6;&quot;&gt;updated: timestamp&lt;br&gt;&lt;/p&gt;&lt;hr size=&quot;1&quot;&gt;&lt;p style=&quot;border-color: var(--border-color); margin: 0px 0px 0px 4px; line-height: 1.6;&quot;&gt;id: uuid (PK)&lt;/p&gt;&lt;p style=&quot;border-color: var(--border-color); margin: 0px 0px 0px 4px; line-height: 1.6;&quot;&gt;user_id: uuid (FK)&lt;/p&gt;&lt;p style=&quot;border-color: var(--border-color); margin: 0px 0px 0px 4px; line-height: 1.6;&quot;&gt;article_id: uuid (FK)&lt;br&gt;&lt;/p&gt;" style="verticalAlign=top;align=left;overflow=fill;fontSize=14;fontFamily=Helvetica;html=1;rounded=0;shadow=0;comic=0;labelBackgroundColor=none;strokeWidth=1;" vertex="1" parent="WIyWlLk6GJQsqaUBKTNV-1">
          <mxGeometry x="1258" y="-620" width="258" height="170" as="geometry" />
        </mxCell>
        <mxCell id="CHBhgS3oAQKA-8naU6Je-48" value="&lt;p style=&quot;margin:0px;margin-top:4px;text-align:center;&quot;&gt;&lt;b&gt;follow&lt;/b&gt;&lt;/p&gt;&lt;hr size=&quot;1&quot;&gt;&lt;p style=&quot;margin:0 0 0 4px;line-height:1.6;&quot;&gt; created: timestamp&lt;/p&gt;&lt;p style=&quot;margin:0 0 0 4px;line-height:1.6;&quot;&gt;updated: timestamp&lt;br&gt;&lt;/p&gt;&lt;hr size=&quot;1&quot;&gt;&lt;p style=&quot;border-color: var(--border-color); margin: 0px 0px 0px 4px; line-height: 1.6;&quot;&gt;id: uuid (PK)&lt;/p&gt;&lt;p style=&quot;border-color: var(--border-color); margin: 0px 0px 0px 4px; line-height: 1.6;&quot;&gt;follower_id: uuid (FK)&lt;/p&gt;&lt;p style=&quot;border-color: var(--border-color); margin: 0px 0px 0px 4px; line-height: 1.6;&quot;&gt;following_id: uuid (FK)&lt;br&gt;&lt;/p&gt;" style="verticalAlign=top;align=left;overflow=fill;fontSize=14;fontFamily=Helvetica;html=1;rounded=0;shadow=0;comic=0;labelBackgroundColor=none;strokeWidth=1;" vertex="1" parent="WIyWlLk6GJQsqaUBKTNV-1">
          <mxGeometry x="130" y="-1080" width="258" height="170" as="geometry" />
        </mxCell>
        <mxCell id="CHBhgS3oAQKA-8naU6Je-12" value="&lt;p style=&quot;margin:0px;margin-top:4px;text-align:center;&quot;&gt;&lt;b&gt;follow&lt;/b&gt;&lt;/p&gt;&lt;hr size=&quot;1&quot;&gt;&lt;p style=&quot;margin:0 0 0 4px;line-height:1.6;&quot;&gt; created: timestamp&lt;/p&gt;&lt;p style=&quot;margin:0 0 0 4px;line-height:1.6;&quot;&gt;updated: timestamp&lt;br&gt;&lt;/p&gt;&lt;hr size=&quot;1&quot;&gt;&lt;p style=&quot;border-color: var(--border-color); margin: 0px 0px 0px 4px; line-height: 1.6;&quot;&gt;id: uuid (PK)&lt;/p&gt;&lt;p style=&quot;border-color: var(--border-color); margin: 0px 0px 0px 4px; line-height: 1.6;&quot;&gt;follower_id: uuid (FK)&lt;/p&gt;&lt;p style=&quot;border-color: var(--border-color); margin: 0px 0px 0px 4px; line-height: 1.6;&quot;&gt;following_id: uuid (FK)&lt;br&gt;&lt;/p&gt;" style="verticalAlign=top;align=left;overflow=fill;fontSize=14;fontFamily=Helvetica;html=1;rounded=0;shadow=0;comic=0;labelBackgroundColor=none;strokeWidth=1;" vertex="1" parent="WIyWlLk6GJQsqaUBKTNV-1">
          <mxGeometry x="180" y="-1090" width="258" height="170" as="geometry" />
        </mxCell>
        <mxCell id="CHBhgS3oAQKA-8naU6Je-49" style="edgeStyle=orthogonalEdgeStyle;rounded=1;orthogonalLoop=1;jettySize=auto;html=1;entryX=-0.001;entryY=0.417;entryDx=0;entryDy=0;entryPerimeter=0;endArrow=ERone;endFill=0;curved=0;startArrow=ERzeroToMany;startFill=0;endSize=12;startSize=12;exitX=1.001;exitY=0.588;exitDx=0;exitDy=0;exitPerimeter=0;" edge="1" parent="WIyWlLk6GJQsqaUBKTNV-1" source="CHBhgS3oAQKA-8naU6Je-48" target="CHBhgS3oAQKA-8naU6Je-41">
          <mxGeometry relative="1" as="geometry">
            <mxPoint x="427.4799999999999" y="-979.996923076923" as="sourcePoint" />
            <mxPoint x="669.9959999999999" y="-980.0000000000001" as="targetPoint" />
            <Array as="points" />
          </mxGeometry>
        </mxCell>
        <mxCell id="CHBhgS3oAQKA-8naU6Je-13" style="edgeStyle=orthogonalEdgeStyle;rounded=1;orthogonalLoop=1;jettySize=auto;html=1;entryX=-0.001;entryY=0.417;entryDx=0;entryDy=0;entryPerimeter=0;endArrow=ERone;endFill=0;curved=0;startArrow=ERzeroToMany;startFill=0;endSize=12;startSize=12;exitX=1.001;exitY=0.588;exitDx=0;exitDy=0;exitPerimeter=0;" edge="1" parent="WIyWlLk6GJQsqaUBKTNV-1" source="CHBhgS3oAQKA-8naU6Je-12" target="CHBhgS3oAQKA-8naU6Je-5">
          <mxGeometry relative="1" as="geometry">
            <mxPoint x="477.4799999999999" y="-989.996923076923" as="sourcePoint" />
            <mxPoint x="719.9959999999999" y="-990.0000000000001" as="targetPoint" />
            <Array as="points" />
          </mxGeometry>
        </mxCell>
        <mxCell id="CHBhgS3oAQKA-8naU6Je-50" style="edgeStyle=orthogonalEdgeStyle;rounded=1;orthogonalLoop=1;jettySize=auto;html=1;entryX=-0.001;entryY=0.581;entryDx=0;entryDy=0;entryPerimeter=0;endArrow=ERone;endFill=0;curved=0;startArrow=ERzeroToMany;startFill=0;endSize=12;startSize=12;exitX=1.001;exitY=0.822;exitDx=0;exitDy=0;exitPerimeter=0;" edge="1" parent="WIyWlLk6GJQsqaUBKTNV-1" source="CHBhgS3oAQKA-8naU6Je-48" target="CHBhgS3oAQKA-8naU6Je-41">
          <mxGeometry relative="1" as="geometry">
            <mxPoint x="427" y="-940" as="sourcePoint" />
            <mxPoint x="670" y="-940" as="targetPoint" />
            <Array as="points">
              <mxPoint x="670" y="-941" />
            </Array>
          </mxGeometry>
        </mxCell>
        <mxCell id="CHBhgS3oAQKA-8naU6Je-14" style="edgeStyle=orthogonalEdgeStyle;rounded=1;orthogonalLoop=1;jettySize=auto;html=1;entryX=-0.001;entryY=0.581;entryDx=0;entryDy=0;entryPerimeter=0;endArrow=ERone;endFill=0;curved=0;startArrow=ERzeroToMany;startFill=0;endSize=12;startSize=12;exitX=1.001;exitY=0.822;exitDx=0;exitDy=0;exitPerimeter=0;" edge="1" parent="WIyWlLk6GJQsqaUBKTNV-1" source="CHBhgS3oAQKA-8naU6Je-12" target="CHBhgS3oAQKA-8naU6Je-5">
          <mxGeometry relative="1" as="geometry">
            <mxPoint x="477" y="-950" as="sourcePoint" />
            <mxPoint x="720" y="-950" as="targetPoint" />
            <Array as="points">
              <mxPoint x="720" y="-951" />
            </Array>
          </mxGeometry>
        </mxCell>
        <mxCell id="CHBhgS3oAQKA-8naU6Je-51" value="&lt;p style=&quot;margin:0px;margin-top:4px;text-align:center;&quot;&gt;&lt;b&gt;article-to-tag&lt;/b&gt;&lt;/p&gt;&lt;hr size=&quot;1&quot;&gt;&lt;p style=&quot;margin:0 0 0 4px;line-height:1.6;&quot;&gt;&lt;/p&gt;&lt;p style=&quot;border-color: var(--border-color); margin: 0px 0px 0px 4px; line-height: 1.6;&quot;&gt;&lt;span style=&quot;background-color: initial;&quot;&gt;tag_id: uuid (FK)&lt;/span&gt;&lt;br&gt;&lt;/p&gt;&lt;p style=&quot;border-color: var(--border-color); margin: 0px 0px 0px 4px; line-height: 1.6;&quot;&gt;article_id: uuid (FK)&lt;/p&gt;" style="verticalAlign=top;align=left;overflow=fill;fontSize=14;fontFamily=Helvetica;html=1;rounded=0;shadow=0;comic=0;labelBackgroundColor=none;strokeWidth=1;" vertex="1" parent="WIyWlLk6GJQsqaUBKTNV-1">
          <mxGeometry x="670" y="-220" width="258" height="90" as="geometry" />
        </mxCell>
        <mxCell id="CHBhgS3oAQKA-8naU6Je-15" value="&lt;p style=&quot;margin:0px;margin-top:4px;text-align:center;&quot;&gt;&lt;b&gt;article-to-tag&lt;/b&gt;&lt;/p&gt;&lt;hr size=&quot;1&quot;&gt;&lt;p style=&quot;margin:0 0 0 4px;line-height:1.6;&quot;&gt;&lt;/p&gt;&lt;p style=&quot;border-color: var(--border-color); margin: 0px 0px 0px 4px; line-height: 1.6;&quot;&gt;&lt;span style=&quot;background-color: initial;&quot;&gt;tag_id: uuid (FK)&lt;/span&gt;&lt;br&gt;&lt;/p&gt;&lt;p style=&quot;border-color: var(--border-color); margin: 0px 0px 0px 4px; line-height: 1.6;&quot;&gt;article_id: uuid (FK)&lt;/p&gt;" style="verticalAlign=top;align=left;overflow=fill;fontSize=14;fontFamily=Helvetica;html=1;rounded=0;shadow=0;comic=0;labelBackgroundColor=none;strokeWidth=1;" vertex="1" parent="WIyWlLk6GJQsqaUBKTNV-1">
          <mxGeometry x="720" y="-230" width="258" height="90" as="geometry" />
        </mxCell>
        <mxCell id="CHBhgS3oAQKA-8naU6Je-52" value="&lt;p style=&quot;margin:0px;margin-top:4px;text-align:center;&quot;&gt;&lt;b&gt;tag&lt;/b&gt;&lt;/p&gt;&lt;hr size=&quot;1&quot;&gt;&lt;p style=&quot;margin:0 0 0 4px;line-height:1.6;&quot;&gt; created: timestamp&lt;br&gt; updated: timestamp&lt;br&gt;name: text&lt;br&gt;&lt;/p&gt;&lt;hr size=&quot;1&quot;&gt;&lt;p style=&quot;border-color: var(--border-color); margin: 0px 0px 0px 4px; line-height: 1.6;&quot;&gt;id: uuid (PK)&lt;br&gt;&lt;/p&gt;" style="verticalAlign=top;align=left;overflow=fill;fontSize=14;fontFamily=Helvetica;html=1;rounded=0;shadow=0;comic=0;labelBackgroundColor=none;strokeWidth=1;" vertex="1" parent="WIyWlLk6GJQsqaUBKTNV-1">
          <mxGeometry x="1208" y="-220" width="258" height="150" as="geometry" />
        </mxCell>
        <mxCell id="CHBhgS3oAQKA-8naU6Je-16" value="&lt;p style=&quot;margin:0px;margin-top:4px;text-align:center;&quot;&gt;&lt;b&gt;tag&lt;/b&gt;&lt;/p&gt;&lt;hr size=&quot;1&quot;&gt;&lt;p style=&quot;margin:0 0 0 4px;line-height:1.6;&quot;&gt; created: timestamp&lt;br&gt; updated: timestamp&lt;br&gt;name: text&lt;br&gt;&lt;/p&gt;&lt;hr size=&quot;1&quot;&gt;&lt;p style=&quot;border-color: var(--border-color); margin: 0px 0px 0px 4px; line-height: 1.6;&quot;&gt;id: uuid (PK)&lt;br&gt;&lt;/p&gt;" style="verticalAlign=top;align=left;overflow=fill;fontSize=14;fontFamily=Helvetica;html=1;rounded=0;shadow=0;comic=0;labelBackgroundColor=none;strokeWidth=1;" vertex="1" parent="WIyWlLk6GJQsqaUBKTNV-1">
          <mxGeometry x="1258" y="-230" width="258" height="150" as="geometry" />
        </mxCell>
        <mxCell id="CHBhgS3oAQKA-8naU6Je-53" style="edgeStyle=orthogonalEdgeStyle;rounded=0;orthogonalLoop=1;jettySize=auto;html=1;entryX=0.001;entryY=0.367;entryDx=0;entryDy=0;entryPerimeter=0;endSize=12;startSize=12;endArrow=ERone;endFill=0;startArrow=ERzeroToMany;startFill=0;exitX=1.001;exitY=0.609;exitDx=0;exitDy=0;exitPerimeter=0;" edge="1" parent="WIyWlLk6GJQsqaUBKTNV-1" source="CHBhgS3oAQKA-8naU6Je-51" target="CHBhgS3oAQKA-8naU6Je-52">
          <mxGeometry relative="1" as="geometry" />
        </mxCell>
        <mxCell id="CHBhgS3oAQKA-8naU6Je-17" style="edgeStyle=orthogonalEdgeStyle;rounded=0;orthogonalLoop=1;jettySize=auto;html=1;entryX=0.001;entryY=0.367;entryDx=0;entryDy=0;entryPerimeter=0;endSize=12;startSize=12;endArrow=ERone;endFill=0;startArrow=ERzeroToMany;startFill=0;exitX=1.001;exitY=0.609;exitDx=0;exitDy=0;exitPerimeter=0;" edge="1" parent="WIyWlLk6GJQsqaUBKTNV-1" source="CHBhgS3oAQKA-8naU6Je-15" target="CHBhgS3oAQKA-8naU6Je-16">
          <mxGeometry relative="1" as="geometry" />
        </mxCell>
      </root>
    </mxGraphModel>
  </diagram>
</mxfile>
